<mxfile host="app.diagrams.net" modified="2023-10-05T19:49:12.261Z" agent="Mozilla/5.0 (X11; Ubuntu; Linux x86_64; rv:109.0) Gecko/20100101 Firefox/118.0" etag="VLYDlfZKA4G8oTUdwdoY" version="22.0.3" type="device">
  <diagram name="Seite-1" id="yc9LVawkMIqKGboBIN8s">
    <mxGraphModel dx="954" dy="772" grid="1" gridSize="10" guides="1" tooltips="1" connect="1" arrows="1" fold="1" page="1" pageScale="1" pageWidth="827" pageHeight="1169" background="#ffffff" math="0" shadow="0">
      <root>
        <mxCell id="0" />
        <mxCell id="1" parent="0" />
        <mxCell id="c7obE_XY5jQ9TQnowNLQ-29" style="edgeStyle=orthogonalEdgeStyle;rounded=0;orthogonalLoop=1;jettySize=auto;html=1;" edge="1" parent="1" source="c7obE_XY5jQ9TQnowNLQ-1" target="c7obE_XY5jQ9TQnowNLQ-4">
          <mxGeometry relative="1" as="geometry" />
        </mxCell>
        <mxCell id="c7obE_XY5jQ9TQnowNLQ-30" value="display" style="edgeLabel;html=1;align=center;verticalAlign=middle;resizable=0;points=[];" vertex="1" connectable="0" parent="c7obE_XY5jQ9TQnowNLQ-29">
          <mxGeometry x="0.0333" y="-1" relative="1" as="geometry">
            <mxPoint as="offset" />
          </mxGeometry>
        </mxCell>
        <mxCell id="c7obE_XY5jQ9TQnowNLQ-1" value="&lt;div&gt;JavaFX App&lt;/div&gt;" style="rounded=1;whiteSpace=wrap;html=1;fillColor=#FF8000;" vertex="1" parent="1">
          <mxGeometry x="690" y="20" width="120" height="60" as="geometry" />
        </mxCell>
        <mxCell id="c7obE_XY5jQ9TQnowNLQ-24" style="edgeStyle=orthogonalEdgeStyle;rounded=0;orthogonalLoop=1;jettySize=auto;html=1;entryX=0;entryY=0.5;entryDx=0;entryDy=0;" edge="1" parent="1" source="c7obE_XY5jQ9TQnowNLQ-2" target="c7obE_XY5jQ9TQnowNLQ-3">
          <mxGeometry relative="1" as="geometry" />
        </mxCell>
        <mxCell id="c7obE_XY5jQ9TQnowNLQ-25" value="&lt;div&gt;send draw commands&lt;/div&gt;&lt;div&gt;for shapes&lt;/div&gt;&lt;div&gt;(visual tasks)&lt;br&gt;&lt;/div&gt;" style="edgeLabel;html=1;align=center;verticalAlign=middle;resizable=0;points=[];" vertex="1" connectable="0" parent="c7obE_XY5jQ9TQnowNLQ-24">
          <mxGeometry x="0.0147" y="4" relative="1" as="geometry">
            <mxPoint as="offset" />
          </mxGeometry>
        </mxCell>
        <mxCell id="c7obE_XY5jQ9TQnowNLQ-2" value="&lt;div&gt;CompletionService&lt;/div&gt;" style="rounded=1;whiteSpace=wrap;html=1;fillColor=#FF8000;" vertex="1" parent="1">
          <mxGeometry x="394" y="470" width="160" height="70" as="geometry" />
        </mxCell>
        <mxCell id="c7obE_XY5jQ9TQnowNLQ-26" style="edgeStyle=orthogonalEdgeStyle;rounded=0;orthogonalLoop=1;jettySize=auto;html=1;" edge="1" parent="1" source="c7obE_XY5jQ9TQnowNLQ-3" target="c7obE_XY5jQ9TQnowNLQ-4">
          <mxGeometry relative="1" as="geometry" />
        </mxCell>
        <mxCell id="c7obE_XY5jQ9TQnowNLQ-27" value="&lt;div&gt;draw to Canvas&lt;/div&gt;&lt;div&gt;and&lt;/div&gt;stats box" style="edgeLabel;html=1;align=center;verticalAlign=middle;resizable=0;points=[];" vertex="1" connectable="0" parent="c7obE_XY5jQ9TQnowNLQ-26">
          <mxGeometry x="-0.0326" y="-2" relative="1" as="geometry">
            <mxPoint as="offset" />
          </mxGeometry>
        </mxCell>
        <mxCell id="c7obE_XY5jQ9TQnowNLQ-3" value="&lt;div&gt;UI Thread&lt;/div&gt;" style="rounded=1;whiteSpace=wrap;html=1;fillColor=#FF8000;" vertex="1" parent="1">
          <mxGeometry x="690" y="475" width="120" height="60" as="geometry" />
        </mxCell>
        <mxCell id="c7obE_XY5jQ9TQnowNLQ-4" value="&lt;div&gt;Canvas /&lt;/div&gt;&lt;div&gt;Stats box&lt;br&gt;&lt;/div&gt;" style="rounded=1;whiteSpace=wrap;html=1;fillColor=#FF8000;" vertex="1" parent="1">
          <mxGeometry x="690" y="200" width="120" height="60" as="geometry" />
        </mxCell>
        <mxCell id="c7obE_XY5jQ9TQnowNLQ-11" style="edgeStyle=orthogonalEdgeStyle;rounded=0;orthogonalLoop=1;jettySize=auto;html=1;exitX=0.094;exitY=1.014;exitDx=0;exitDy=0;exitPerimeter=0;entryX=0.5;entryY=0;entryDx=0;entryDy=0;" edge="1" parent="1" source="c7obE_XY5jQ9TQnowNLQ-6" target="c7obE_XY5jQ9TQnowNLQ-7">
          <mxGeometry relative="1" as="geometry">
            <Array as="points">
              <mxPoint x="173" y="120" />
              <mxPoint x="474" y="120" />
            </Array>
          </mxGeometry>
        </mxCell>
        <mxCell id="c7obE_XY5jQ9TQnowNLQ-12" value="create ExecutorService&lt;br&gt;according to&lt;br&gt;&lt;div&gt;user input&lt;/div&gt;" style="edgeLabel;html=1;align=center;verticalAlign=middle;resizable=0;points=[];" vertex="1" connectable="0" parent="c7obE_XY5jQ9TQnowNLQ-11">
          <mxGeometry x="0.0167" y="-4" relative="1" as="geometry">
            <mxPoint as="offset" />
          </mxGeometry>
        </mxCell>
        <mxCell id="c7obE_XY5jQ9TQnowNLQ-14" style="edgeStyle=orthogonalEdgeStyle;rounded=0;orthogonalLoop=1;jettySize=auto;html=1;exitX=0.059;exitY=1.043;exitDx=0;exitDy=0;exitPerimeter=0;" edge="1" parent="1" source="c7obE_XY5jQ9TQnowNLQ-6" target="c7obE_XY5jQ9TQnowNLQ-13">
          <mxGeometry relative="1" as="geometry">
            <Array as="points">
              <mxPoint x="153" y="140" />
              <mxPoint x="153" y="140" />
            </Array>
          </mxGeometry>
        </mxCell>
        <mxCell id="c7obE_XY5jQ9TQnowNLQ-15" value="&lt;div&gt;instantiate&lt;/div&gt;&lt;div&gt;&lt;br&gt;&lt;/div&gt;" style="edgeLabel;html=1;align=center;verticalAlign=middle;resizable=0;points=[];" vertex="1" connectable="0" parent="c7obE_XY5jQ9TQnowNLQ-14">
          <mxGeometry relative="1" as="geometry">
            <mxPoint as="offset" />
          </mxGeometry>
        </mxCell>
        <mxCell id="c7obE_XY5jQ9TQnowNLQ-6" value="" style="shape=image;verticalLabelPosition=bottom;labelBackgroundColor=default;verticalAlign=top;aspect=fixed;imageAspect=0;image=data:image/png,iVBORw0KGgoAAAANSUhEUgAAAzUAAABmCAYAAADyHr8oAAAABHNCSVQICAgIfAhkiAAAIABJREFUeF7tnQeAFMXSx/+7txf3cuYSOSM5S1QRUDECCijIE8zwxJwwZ8GEYhY/w/OJiWcgKCBZokjOHOHuuJzzbfiqZ2Z3ZzbdHoJwUKPHznRXV1f/Zra3arqnR1deXm4Fb0yACTABJsAEmAATYAJMgAkwgUZKQN9I7WazmQATYAJMgAkwASbABJgAE2ACEgEOavhCYAJMgAkwASbABJgAE2ACTKBRE+CgplGfPjaeCTABJsAEmAATYAJMgAkwAQ5q+BpgAkyACTABJsAEmAATYAJMoFET4KCmUZ8+Np4JMAEmwASYABNgAkyACTABDmr4GmACTIAJMAEmwASYABNgAkygURPgoKZRnz42ngkwASbABJgAE2ACTIAJMAHD+Yyg1mJFnQWw0n+8MQEmwATUBHTQwZ9u+wTodQyGCTABJsAEmAATOMsJnJdBjdlqRX6NBZUmC45XmpFbYz7LTxObxwSYwD9NID7QD6khfggx6BEbqIefjoObf/occH1MgAkwASbABHwlUG9QY1w9zlddZ4VcxcCv6rVDBDTbi2pw/58FOFJhqleeBZgAEzg/CTQzGjCreww6RwUiIcivXgiNrb+st0GNSMCXvl80x2KxICMjA7m5uaitrW1ELWRTzxUCAQEBiI+PR0pKCvR6354C4L7l1J/9hvQZx48fx4kTJ1BTU3PqDWGNPhMIDAxEkyZNkJqa6va7U29QI9U0YI7PFZ5RwTXT6q1eTDmrNFvxwNYCpIYG4NNBKT45K/UqZgEmwATOKQI51WbM/DNX6it+GNwEou/waSpaY+kvz6Wz5UPfb2uuCGjKysrQoUMH+Pv7n0sUuC2NhEBdXR3S09Ol4DotLc13q7lv8Z1VfZIN6DOOHTuGiooK9OvXD8Kp5u3MERBB5c6dOyHOSbNmzVwM8S2ocSnWeBPq6PGZzEoT0stN+HhAMiKstbBWW2j2PE8tabxnlS1nAqeWgHjOLsKqx9Pd4nDR4qNSnxFPIzUBp7Ya1nYGCOTn56Njx44Qd8t5YwJngoDBYECrVq2wa9euhgU1Z8JYrhPZ2dno27cvTCYTj9Sc4evBz89P6r/Xr1/PQY04F/Q4DUrr5GdoEsV0kuoaxNHced6YABNgAmoCeTRSI/URtIk+Q/QdvDV+AuIuudFobPwN4RY0agJilFBci7yd/QTE6IC4CSJGeHk7swREYBkcHOwxuDzvRmrUp0PMrRYui5W9lTN7lXLtTOAsJCDGbs3UR/B2bhHQ0YIPPO3s3DqnjbU14lrkrXEQEP4i+4pnx7kS58LTdl4HNeICtVjFhcodi6cLhNOZwPlKQO4beHjmXDv/wpH09eHsc63t3J6ziwAHNWfX+fBmjfAXOajxRuify/N2Hs77oEa8osZb1PfPnSauiQkwgbOKAPUN3jrPs8pWNsZnAuxI+oyKBU8zAb4WTzPgU6ieg5pTCPNvqvL2u3zeBzXy3VgPSyqaC3FoxxGU2Ea69AYER6agedNoBCmDO1Un9uBAbRIuaBpxcksNWGuQs38PKhO6oHmkdsSoJmcf9lQmoEvzyJPT3ZALx1qFE3sPoDbpAjSN4JGrhqBj2XOTAI/UnJvntcGOpKUA+3dUILlzGoyqrtFamYN9u9NRGpiMdh1SEa56NNNbHqyVyNm3G+mlgUhu1wGp6oJ0l62S+v3d6aUITG6HDqnh0hRpefOWd26eq3O9VQ2+Fs91IGdx+046qLEU4fD2dBS7nTGlR/du7T36gKcXhxVVJ/aS/5qMzk3DT29Vp1g7BzUegNouUk+ArFW7MP/p17EvpSXigkiJpQbFWRmobj0RTz58JVoG65C39gO8nDMRn97ZFScVIdIP5oZPnseh6/6De3ppNRRs+ATPH7oO/7mn18np9tBut8mWPKz94GXkTPwUd3Y9qZa4VcuJTKCxEjjpH7HG2mC225WAtQJ7vpiJ6cv74oOPJ6K5EmGYs5fh+btm40Cr3kgr/BNPBYzBrFdvRIcQHbzlUSaWPX8XZh9ohd5phfjzqQCMmfUqbuwQQjeuzMhe9jzumn0ArXqnofDPpxAwZhZevbEDQnTe8lzN5hQmwAROLYGTfqamLgN/zP8Kf4k1IazlyNqXCV1qGzSR7pD4o1uXuz36gKe2Bc7aLMhd+z5eyb0Zn9/RxTnzrD72NrvqJL1XCwoO7cSBQrehJ/TRzdCjZaTqDpPvfKqzD2BHRTx6tjzJkQ/fq5Kmlljp3RMegxqxgIBfCkbe+yLGNJVHc6xVe/DZA0/i8zUD8MQl0WL2Gm2yjpOafW8v5GpH4uUvQLxKVC/sbEC7TkrUtlgCzxs9KXxc6Nwj4K1vOLnW0p32w5uwtrY9LmkXivID67FZ1xlDWhlPyUhsZRaN7NY0Qffm4Senz1qNjN0HUZPcES2dRo3dtVf0m+JOs7U6F7t2VyGpW1NEN4JBXl/vjpsKd+GX917Cu78dR2VaXwcCckw2zHsDhy57HR/d0haB5hwsfGwy3vp5KN4bE+k5b2wyyjfMwxuHLsPrH92CtoFm5Cx8DJPf+hlD545FcuUGzHvjEC57/SPc0jYQ5pyFeGzyW/h56FyMifScNzbFw0wDdyeN084qAr5ei56Nrt8X65Vce2a+nzT7I2P3IdSkUH/ibvaH8DWo/2gEXYaE/6Rvcvl3xLjnXob0GnvTNrw/+TXob38BUzvJ7rfVkq2cXlcf0PN5PxU5Yn7132jXqTDhJHV48tmFupMMasw4tuYHfLxFCj1RlnEAR3XJ6Jgs/zgH9BiPricZ1OT/8TkePHA1fn2wO8Wwp3eTLlIlIHFXk3wRO530wESkxAMH6kzKRe7It5JTcHzdd/j6l404XOqPxI5DcO31I9Epmm7vUV7m+gWYv3ADDhb5IbHLcIwbfwlaBYsL2abDgor9v2DeT0XoddM4tE7/Ah9n98e9V7VByYbPML+gDdrnLsfPW7JgjuuMy268ERe3EHf4yFlK/x1f/WcR/qLvR3KfUeht2IjiLtNxbXvtuxispXux6MtvsGJPNqpDUtDl4jG4/pJWCFWxEO2uy96MBV//D+v2F8EvoRMuGjMOI9pHQPr5rMvG5gVf43/r9qPILwGdLhqDcSPaI4IyC4Wdec3QPGMZFu8qgbHVQIy+8Wp0jeFls91dY5x2egksWbIEixcv9ljJiBEjMHz4cLf53voGtwXqTbTg0NKvsKrtcxTUmLB34VdY368HhtZbzjeB3FXz8Gj2ePx8T+eT6zst+fj9ndeRdcv7eKiHt58GC7JXz8PcnEvw5Oim0BVuwZwnDmPigrtwobdivjXjtEv55kiasfe7uVgVNRlvP7UJd89TmWU6gA3rwjBwVitIr+Hzi8fAi7vg1Z+2ANekec4bm4ADG9YhbOAstJILIn7gxejy6k/Ykj8GCZkbsC5sIGbJmaR2IC7u8ip+2pJPaj3njaEfpMbiGJ72k9vIKvDtWvTWqPp9sZ7Djp6Z7yfNQln+9hvInvoeHuyu7RgsORsw++M8XP3QFWjdSFwD70FNNfb8MBfr4m/C5AvjZD/JdBgL3/kNxuunYnCicuNB8vXofKpvHiv7lUdWYt6SRdiSZUFc55G46caL0ZxGfgv++BTfFjZF/J4lWF3WDVMeHovWJVs8+meW4j1Y/M0PWLUzA8XmECR1uhg3TBiBNmHkKVYexu9ffYVFf+XA0Hwg+hnF603kYMqjb3gaOpe/87ssvg2nIaihIbNJT+LDSUK9CZvfug1P+E3Fe3d1ONkoydu39rTlSWDUF5dTTXJ+KdI3rcLKI3RmrXUoSV+L38qvwNT+MXJZpYwfraJW9MdcPPlpLa695xHckkgX+f/exkvPVeDz2WNQsXUenvqwAJff8yBuTqnBts9exPMfR+CTu1JlDVS+Yv8CvPjKBrSZ/hh6xfkhZ+M+bDnSkVZos6Imbw+WffYnTLffjhmXhSDz5zfw6juL0eaVa5BSuhZzn/kW/jfdiye7GZGx9H3M/mInujS9y+nk12LHf2fh18A78fBzbRCQvxYfPfcK5ie9jcntxDdNbLQiXPlf+OSpd5E/8h48ODEZpoO/4J2XX4bp2WcwKrka2z55Cu/mj8Q9D05EsukgfnnnZbxsehbPjEqR7Pztkw0YPP0BPH1TKI7+8iZmvwQ89cK1aNoIHB6nS4APGzmBSy+9FKWlpVi3bp1LS/r37w+R77GD9NI3uCjzJcFaiAOHjGg7Ihg6ywnsPxyPtjec7ls3vhjWUBkrTuzYjENhF0sF9Ukj8N6PYqehes6MvG+OJL3gbcrbmE13kus2bdYYaq3IQVZ5IgbH2hqsQ3BcIsJOZMFaEegxjzKRk1WOxMGxdlS64Dgkhp3AVXSjrPjPLJQnDoZDbTDiEsPw1lVxKF7sPu9EVh4siD+pWRFnhj7Xqibg27XojVn9vpgl66g3BWckz5KzB6vTjbj6jNR+cpWK3wnP0578kRRvxcqf/sCIPlegCXUNNbuXYcHhcDwYrVqMSiwLTdVbyd+z65LSarFx+S7cNW0GRoZkYfFbr2DOwtZ45dpUesZuN5Z+9RcuvPE6XBMdi7amv/CR8M9GkH92UxLqDi7E3JdfQt0zwj8rxvI5z2Np6gw88ExbhFQdxqI3X8Ccn1vjzbHR+OPdZ/Gt302Y8UQXhBxdgrdnH4ZlkGhXteIb3oGHnlX7hnNwc/tT/xs1bNgwr7/LIt8z69MS1PhyUVhQuPNXzJu/Fn8eLYbZSNMiRozB7aNaI1xnRfGuJXj/y9XYllUNY9oFGDVhNEa1DdUotpYfwPz3F6Kw73jccWEsclZ/hjf2dMT9U3si5hREjwKazsuFKk8/qcCx7ethFfMfLXWoyD2CMmsEsvKq0MEYJE1fo39gMRdg068bkHLdHIxoFyPdOesz/mbsnT6bTs7l2P77GkTQdLLLO8ZLP2gDJj6A8Mwg6cSJoKVsz/d4adl6tLjvKYzvGEYqxUUvB12SDO3rOl6OGwa1RhQpj7uoP1KWZSKZ5mHnbfgVW1qOxtxBzYktEHX1JIxa+xCOSeXUUwTNqK2tRXnhUWTkpaB92kW4+41+0AX7SfpFdbdeoEPZmsVYEXY5XhrRTv6B7Xotxva5Gx+vPIzLRp3A4hVhuPylEWgn/fp2xbVj++Duj1fi8IhxMJIS/56jcdOAVOmh2g5XXo+Bv72NVYdGYUJjuSXjy+XNMo2GwOjRo1FeXo7t27fbbe7cuTNEureOU3wvveX7DMCSi9/e+RSLT5TSA6PZCJv7CrbqS7F/Tz5i3/kOaQ9fh550R86x0QOcxzfiyy8WY+W+Yhho8Y5rbr4eo9oYYS3ai++//BG/bstEoSkYqV2HYsrkS9FRfPHVGqozsWL+9/h2zSEUGBLQ64rrcevIFjDm/YG3Pi7GyAdHoq24Q0rP0i17778oGnYnRrdQa3Dffz94ZSuUbJqP91YXI8PwCR7zH48Xh5Xh7bnZuOjRUeior8aRVQvw8YLN2FdsQHKXQZh403B0o5Faa8EmzP2iEJ065uKXBX/imCkOPa8ehzuGN6e+wstvQt4GvDX3ALpPm4CBp2B+m6+OpEe52mrUWP3pXTcOXjr/AATQC/rgLY8cl+oa6h+1BemlflSOtlp6EbSV8hxq6X069MI/b3k1NXWSk8Rb4yTg8Ro71c2hqWCHln2O//1E3zszfe+uIp9qeDMYUYAVHy5AXrM4bP95LYp73Yw5N7WiWSU/4uNv12NXgR+Sug7B5EmXonMk/d5bSrDtx+/w5e+7caTIDGNyB1wxcRzNCAmVZoyUH1yJjz5dgg3Z/mg9tA/C5Peca1pjLSWnnG58FmQaMOuZALw1zoAXFxox+d9D0FQatbHg+G8f44u6kXi4zwnqM/LQumUmfv5xNwrDWuLS8eMwoUeMFMjXnvgTX372E5bvoX6ySQdcfuNYXNtRzCixnhZ/0eMNMLIltOtg9Pn4v1ifORJXp9CUv9V/IGLwk9QmeTaOBEHcSFc+7bqkm2f+6EJ94eDWUcQxDhcNaIYlR3NhsqaIQkD7yzBhZH+a3kuM18yS/bORin/WTfhny/HxqnRccUMSOo6diQ7JLRFPz3xb/BPRsnkUfioogaXoMJZuTMNVcwahhehHo6/DTZeuwItVon4L6iTf8Bgy81PJN7wY097sT76hwfNNP7klJ/3vyf4uiwq9/S6ftnvn1rxVeH7mCjR/dAbmdjSi8sAiPP3Yu5jf/lVMaboHHz+3DMH3PoD3aHpU9spPcO8z36PppxNB4x/SZq04iM+ffA0r29+FWf3jRAoCIugEJYWe3NQKRa/6wzacaLvOnEWki06fiEGT7sV1yjM1YhrZga8ew8x3l6D9C1fKPyjiojQXIb8gCE0SaBUJcSyU+cUhKbGS8kqQn29CfO9oKYiS8sKbobMQleZTUpS+eB1ahBXheFYFzB1C5ZeCSgYpQ4O0p48Io05I/oJYDQb4W8Rbzs0ozM1DUHwMgpU8ulqRkGDAUaWspEbaAtB57AwM//xLvP3QPJSGtECPwZdj7OghaE7T4MQmLu7C3BxUH/4Lj0/5QSknPnQIurAUlsJc5FQfxl+PT4EmN+hClJqtCKHuJCopgT6VL7I+CnGxxdhfUAtrK7HaAm9M4J8lYDabMXnyZMyZMweHDx9GixYtpGPxZmJvm61/8CbjU54+Ej2uuQFp1Ac+VtsDM6Z2R8iB/+EBaz/cO7kPmgY6BSTl2/DWQ58g95ppeOn2FFRv+QIPPv5/uPLr67Fw1iv4uel0PD+7LcJoKsE3NIL63II2+GJic7sp/jQisP695zE7bySefnoimlVvwztPvIQ3ol7Do0m52LYpB/1tnjCtvpi5Yxuy+9oSZDWe+u+PqP+e3PFSjO2+HO+HXo1pI5rTlIbl2LnhGKbRj3fh6g9w9/u1mPTIg5iRRKO637yLBx+rxJy3RqNNTT62L/oS601T8OAjIxB2fBGefOZ9fN/+BdzUZLfH34TO/mFIaZ6A8FP0a/W3HcnAYATrauiN1o6zb6Vgpjo4BPCWR5PVgsnREG8nt29WCnSqg6XDQHpLto7yHLl0/7a62mtecEggTz1z0Gx0e3/7WvS1xTWbsXDn7Xj80REIzfgVzzz1Hr6j793E1BoadaXv8uZ+uHP81Rg7pB3KtnyCf7+Rj+seuR93p5qw+4f38PDTZix8/TLk/vYuHliSgmeeeBIXGKuwj2aj3DdrETp9MAZtSjfglUd/gGHKv/FWz2Ac/PFdPHbAjBFONuqMbXHtNRfgx0+MmHT7UASEH4T/H1/g11EDMVXc+DQfxa/fbIdx2s2w1uzA9l8+w6pL7sILsyYgPH0RnnpuNvDKs7gpbhf1kx8i50rqJ2+lEYt9i/DCU7Nhmv0kbkjTnzZ/0SPywA4Y2L8cn6w/hstH5GL1piQMfqGJw+cTBambFT2t5rdFckD1iAgzKr6jFXo/A90oN0k3vEW2f1QkQiWfyrt/ZkVzBOEYFsz9P2w9kIEiCpCSAimgaWuFmXy3XP94xEouqlxnbJMk+B0Wer34huolHz02vuEZJ/u7LGGU7He/naKfCTfKjR0w5aX2aNqGHFydhZanbIU2MQuRV0LGWEw0YlCO/COZyGneHq1G3oWvButgpFtUWcLg0n344qll+L3NvXj7lg6QnzHTIarzcEzp7Kauv5Ekj8a4VyC4ySGIHFjIUoFIa90MfktzUUhOfKTC1kohhTGkFsfLqulCVB78tZSjpITuUNJlFkK/d+XllZQXJP0IWSuPYeu2anTvE075Aeg79WncHfcjHn/5Qyzr+DCGJVI5+epXvgCikPhTLLLVS5+hERGoPlGMaholka4/uptSRHdRJFnNybfCFJCKYXe8gKtuL0HG/q349YuP8dqPKXhrLI06yeoRGGJEQJdb8PrDQxT29BhNeQlqAsKAkhwYA7rgltcfxhDbw3911M6aAIQZrMil+irLK+gOA30xBTBLGQ0zhiDcKNqjGC2D5H+ZwD9GoK6uDtOmTcO8efOkgEYc17dJo7CnZAtAdEoq9HvLENxpGDq3TEPe7lLEd+mGDs1dpw5V/rUKv0Vdho+u7YRkcTvy4pvwYpToGUPQfeJj6JraAsk0smMJaIL29Ozif/PpZoPaTlq1cdHvEbhhzuXoIeZBYCCmPRmJozQiS7OFfdu89N9+rSMRbaSbKqHRSIykh0MqFZXWIqz5ZRNaTHgDoy+QR6uH3jIJO+nB2J93XYV7E0hO3xHXTx6MC8SdwsSLcHHT5TieQ9YneP5N0EV2wHUTO/hmtw9Sf9eR1IUmIS06E5m5ZDdNExYdc2nWcVSkXgJveZSJpLRoZGbm0vmKk29clWbheEUqFhYCw5PSEJ2ZCYfaUmQdr8CXC4vwcqr7vNRLEhrLrD8fzsz5J/J3r0WfidFv9o30veukfO+GtfwNh3LIRxCz36mb63rNeIwZQvOkaBGM9T+vQsR1L2B0J/nZkH4TxmDoxHkkeBmMXcbgzc5JaNdETKENQGrb5oj9rpBGfa3I37Acq5pfiW+GtUAcfb3jbpyAa5e+Yu8e7Lb6BSM6KgSGgBDExdOiJn6dMGJwNV5acQg3t24D7FuHJeYBeEZMe8qlUgE9MPnWAWgpRqO7XIlbL15Or7nQo/T337Aw/DJ8cnU7JAq/p9c1mDJgBV5bfhRjbm5xyv3F+m9y0ejUgAGwvEsjXHGZ2NZqCCbE0viV2u+RnTqtb2bz6cSpsOXL3pjs+wlwktMo+37e/DNL2UZ88vzXsI67Fw/fSueGHML0r+/D00V0koPDEGo6jrJqmu4mO4qorKiQfFwRLHnyDV+/odVpm956Mr/LAoc3X9I2KVjIndJNR3edcOQ3vHDv/bj6uqkY98R32CgW6hZ+QlBnTHlsOAJWvovJY27GZbe/iXlrM1Gp+BA1a5dgWWkwco/SPGL3C6ydElvFEJZ8QmXn33bRqj9pmAXVZSUUnIi/YuQd3YLvf9qEwK70Phe9VFq+2HSx6NQzCdsX/4rDFaTXakLB5oVYXtiVJIxo170NDq/8HYcrRV4tstd8gXeWHFZODs3JDg5EUOurccuQPHz50TKcMMkXsGioZI/SYo1tlLaljgYruw9Eq50/4Yft+ag1VyFz3fdYtJ+8F1FO/SceBJ49Ha8uyUSdfwRSOvSilZKMFGMKm0Q7gPe3mRDdsQea7VmEX/aUwkzplvLd+O+Td+O1FXk0CNQRPZrtwaJf9kgjM1YK3Hb/90nc/doK5Ilj+q9841KszaaRGYnBr1hd1wc9W8hBjTvGnOZ0npzPGx9rr+OT5CE60HvuuUcKaHy65uha9jbM7XMnZC3Bjl9/xqeL98KUtRXzv/0Jny89iNpjmzH/h41Ir1VrsqA4Px+mxATES1MxaNNFoE2P9vRJN0dwHD/MfgoTxk/ByFtewbw/5e+oRkNJAXJM8UhSPfMR1aozuibLIwK+2O21//akgG6m5OYFIrWJ6r1ahjikJVUht0AecYA+HJH0wKrcLgMCA+gOog+/CZ6qPJn0v+1I+rXBwCHA0h/WUJ9H3WblPvxvwW70GNqLRuc951nJNWgjF8QauSDd6V6A3T2GohfNKfZrMxBDsBQ/rMmjScV0c2jf/7BgNy0k0SvKa55C82RQcJkzTOBvX4u+2q/+3tF16G+wwEw+hrz5IzYmTB7xo3eqnDhRjb3/9wSuGDMVl4m/8W9iqbkGszabpJuzh396D3dOvRMjRt+LB7/YjiLpC0yrsGXnISAxFvaFE2mmSppPK/PRKMHFA6BfsQ47aaRy+/J1MA7rj9bKLXd9TBJSbH0G2R6XKObzUBCVk4uq/d/gtrGKnWPuwsyVwl8ro+/Pqd8kf7Ge3x6/Zv0xMGAVPp6/Gx0HdUeE8IicygjLBDFnX06kOtJkIflYLmHb9+afWUpzkV2VgLadWyA2hB4rKN6BFX9kopYWttLFdUE/8t1+W3oUVeJxg7I9WL7yIN2Apprr8Q2d23Aqjxv8uyx8Us1jFdpzfZpGaujO1dpPMeP/LLhj5kN4qHUswnTp+HDKM8iXzo8ZQS2G4bE5V+HR4gzs2Pgr3pnzBr5s9houp+zAQVPw7kNx+PLfr2DW4k6YdXniaYkUpRMjXajuYzvhoMNyBN88/i98Q3bp6OWbQZFJaNPzejwwvoc0FUwEwOJirCMdKSPuxuTst/DCtGWIjKxDcW0zjLjndvrRpsBjyFRMPfomXpy2ElERNSgxdMOk6UOo7iL6Uy5wGtFpe+0tGPTILHy0tCOmyBnSha4IyRe9qFGpV+Tp4ofijrsK8OHH9+HmggCk9LkQrVP9oTfQzFJZUBhJWwwG3DgO21+biWm/N0E0rU5SGnURbpvWkuQypS+aUKxrMgx33paNOa9Nx+qIeBiKChDS9zbcMySOlmAEht15G7LnvIbpqyMQbyhCQUhf3HbPELo7Q/NYRfnoGqx/aQZ+0ltQUtcMo6bdgQ6B4gurmMEfTOAMEBDfhdxccevPt03uG07FRauHn18ljmeGoVX3UAQYcmk/lu7qBSPA3+B0p51GrI00DaGsHBVUtfSoDb2s8dDGbWjR3g+vPzofln/NwKwZzZEYqsP+T+/HnQXa9uiCjTRVoQJl4i6RrADl6VuxsaoZBlMZnZkcGnuRalTa7iYpaQ/18EPpGi/9tyd8umCEhdYhnUarxY0cydm2VKCo2A+hRscqjPTsvevm5TfhNunhn7NpC8QFkx7HqJkzMeG69xBZU4jAIQ/h5eFimjQ85olmB14wCY+PmomZE67De5E1KAwcgodeHi7d2aZMTHp8FGbOnIDr3otETWEghjz0MoZLmd7yziY2bMvZSsDt904xVm+bxKgPou9wAPpMfw2zL7W9VqMOpUU1CKfrdeVLL+JD6w14/rlb0SbeCP3BrzHhviLSQv1WeCjqjpajmrodf6nfqqLZKb71n/5tBmBk2ItYvrUTLGtjMXJ2suTziXuSkanwAAAgAElEQVTa1soKVIgOS+oGyLcsLkMS1RdiDEFgz3/hq+eH2JeSr6Ub0NU0o8TR2ygNPAUfNkfeqypdE/QdFIP/fpOIiZ1t08lUJeg3yOZn2X0zShC+kUO/zVdyBDmikJRPqrz5Zzq/vrhqyHK88/B9WJMajGpTEvr36obAXVnIsnbHJbffjONvPItpyyMQQs9ktmyWRliFXs++4el+pUhDf5elq8CLM3nagpqSnGxUJg1C77ZxCCPntnDzSiw7VosO4m5+3go8OnUdBrz9KK5PTUWPC3ug3ad/gX5rpU1HF2twSBvJ6f/XzI/xU9eHcXWyHlXZh7C7JAKdSKe0Iubf3GwXiUdAwf0w48tvMcNDPaJc8pUv4EORLy44/yYYMPVF9J1QTNOxDAiLJAdG+nJTHi372edfz6PHDcUorQ1EREQw/CjPSivXjHj6U6kGyY7gDpj0xidKjU9DyqH0+BGOfenCTqD58vOkTJjzDuBw8BDMeH2s/GU2H8B/7qMVe8iBcW5bYNNhmPHGYJQXlaLGEIao8EDJqaKW4MoXpJaI6pDQdzKe63UDSoppeDIkCpFi6oq4+CnPkNAXk5/rhRto5KrCGoKoSGqLVE7JT7sUM25rh4pSM4LpOaBAqQL5CylVwBsTaAQExPfM+ftzUmbrwtChf0tEfFaJUWOHo2vlGmz52YDrrh2ODi7+ug7hF3THBXNX4ZeDF2JS62Aa3VmLd15Zh1lv9URGZQJG9myJJqF6mIu24ZeVdBeunbiv79h04e1wYcdPsfDXdFwyjhYHMOXgtw/nYmmf5zF0ME0dq1uDnYdr0K+NP4q2rcGKDAu6axpmpVmmnvtv4cAYDH40zbRSms1mf7BdH4de/ZLw0f9+w/6eV6Gt0UKLmCzCz/ldcYdYWt42Tc0NRG+/CeI9OHto6l50+5ZIPAUdf0Pvjvv3ehCLP9UarQvvgpvf/AFjC/NRbohEHPWjtljNWx504ehy85v4YWwh8ssNiIwLh+ORKjr3XW7Gmz+MRWF+OQyRcQi3Z3rLcwOUkxoFgYZei6e9UboY9OjfDHMWLMT2vtejC035KtvxNe54JB1f/jgFJ7KqkDysC9onUEBDzwpvWLIeR2pbYk2tHv169UPbL5fix8M9ML5lIMp2/o6Fe81w98SAjp4ZMVRWolx0IKIPpPcBXnJpHO76iN7M1/wyTJKmzcqbtWQjFvx+FboPp6mW+TRTZlkdgrrU4J6uPdHmg8X4emcP3HYBjTSV78EH9E7BfVfOwpxRcafHXxQOkNeNbmAPewJfDhNCsj+kEaepdv/68H0pyf7bonPyAakniRv+JD4Vbxqg+ppc/hwkj9DuQxk8+2eIQk8awX+f+pdSCloiI2maH3VMV8k10pTf/pj6Yi+MKy4HjPScjuSgyrZ49A3rbbOk4h/dvP0un6aghkYtBl+NKxa9g5unrEXLkCrUpfbH4D6B2JKRD13fgZh+y3Y8Mn0afkqJIae8FLEjb8Mz7fxQsdfGhiLxTtfigUsfwUNvLcPVL1+C3NWf4J51A/Hf2SNBMc7f3mQnXAxl1XehNqwqfVA4osQz8WJVNCfVIi/SQ17DanFIW6oPYMErf2DXzeNwIXUGuZvoPTT+/XB/Ks27dztMZ0BIZDRNZaFNrJDmqWJdIMKiZC/CVY8OgWFRcnCp0iG1V3z5aKpMeIRUgaiCNybQ6AiIvtxb59mQBpkzDuNg0xZoRj/g5mPpONyiDdJcAhpZoz5xKB6+5xhmPjoNC6MjUV1kQP87p9HSycGYOGI5nr7jPvzaLASVpiYYNqAbgv46gWzVd6xOH48rZkzFwedexOglUYiuKYF/n0l4emQCdP6huGn873h0xl1YHBsI/6Z046mbQfOozctbLHjQS/9Nv4xI7dIF+plP4KIjt2P1v2W715r8cOG1d+O+rLdwz03LEBNdh3warb5+5h0YKuakeAlqdPROFk+/CdYMeqfFw5swYt5TGKNydhrCXy176hxJP4REi0VR3G3e8siHC6HFXNwXFJmI9pTpLc+dGZx2VhM4ddfiqWqmHmmj7sJjmXPwyMTViE40IC8vBJfcfw89D5eAi8cNwY8vPYzxy2l100oTmtKUy/5Bu3CcHgQbkEqzb+7OwGMPTcOP9MyMKbgVWtO0c3ebPqUD+upfxW2jjuOxLx/DVXF6JA8cjOYffIqg8T3lkUtbQX00ala9hOu/0dN0qjq0GTsNj3cNgl53KZ64P5sWG5mOJVHx8M8vQOjg2/HsSFofnfyO0+UvumvPGUmjUbXwaHnxJeffKfG8o7zolpvAil68YoyMlEx2LiduURmjYmicXcrU3Cw7I230UKmr3Q5BHS116tWjN64eR+sPz/Ggup5kenakhB5irQuOREyowX4ny1bKKhYLoGFN/wgaCQg6BVHKmmmoGEiRvpetnCYQrsqtxLg1tDrFwAgYTDWIOk2hnRczTnGWGUX7VuK31buQVeGHiNQL6GVw/dEqwn2Hcoor16gr2/sblhS2x7X9U/gB1tMJmnWfdgJFdBfRZAjEwNUl+GpAPAbFhyBU3PbysnnqL63VJbRqYDASImnEoqoYubVGJEQ4Fu91q9JUiYLiWpryGgGjvV56Z1VpIYrrghAdbZSnebgtLBJNtERnKWqDIhBF86vVlou+t4D6iqgoeZTVrYp6+m9LbRXFKYF0t8+1766rKEZRtQER0aGqkQi3tWgST/o3wYe+31bRnj170LNnz/qNYQkmcJoJbN68Ge3b0/NyPmye+hYfip6UiLmSVm0l9zCUbqzQuiD2zVpTRgs+0fM1lO6uP5T6ljIgrL7vvqUWFVX0iDVNTZVmehSswIN378KVH96JgTTLRGyWrEW441Z6se8Pt6MLTS0zhUS6+or0HHFhIc0oMUYhhvo5n7cG9BkrV65E165dUVVFBvN2xgkE0zP7f/31FwYPHuxiy+l153UBiIiLdanUlqALCEVcgvbdNB6FT1OGbcm806T+H1KrR2SboRhDf+rNWzR7ugwLbXsJrhPKz+Io/3S1nfWeWwScR1n/Tut0FFgk2lY0p5s8Cb48s28IQUys8+18GiENj4FYSKz+zUAOCa1o5GYTfW9sfRPP6+m/9QHB9OyO+82fpjbQlPsGb//Eb8LZd3e8wZi4wDlC4Gy+Fv1CItyOJuoCwxAvBkM8bFLfYns3hwcZKVkfQM8P0ic927tj1XZsWfE9Mi6Zjt5KQKMpqqPn8jz0ZRCrqcX50qF6M6b+PNvMnvolWeJ0E/Dm257eoOZ0t+wk9IuH5cL95Wg+u9pML7LU0RQJegnnSejiIkyACZybBMTwdQ2NNRZRHyE20Wd4e9D23KRwbrZKvPxSvIQ4QHmx5bnZSm7V2U5AXIOaF7Ge7QafNvvMyN+/A8dSxuK58a00z0vrjM0wbHQ4mpxhBy0wMFDqM0QQKt6vwtuZI+Dn5yedC3FO3G3nXVAjVuVIDjGgOU2Hm3WwGvfTA23xgfVMA3FHjtOYABM4pwkU1Vgw61C11FeIPkNa0Ye3Rk8ggt7rdfz4caSlpbFT2ejPZuNsgFjGVlyD4lo87zd6BnDordOhnWciU9FFtMfom888oSZNmiAjIwPJycn0+o3TPyp05lt89logvjviXIhz4m4774KaAD0tQEDLjr3aLQb3/1mAMZsr3HHhNCbABJgAmtFk8lndY6Q+Q/QdvDV+AjExMSgoKMDevXv5rmvjP52NsgXibnN4eDjEtcjb2U+gefPm0Ov1SE9PRw29S4e3M0dAjNCI4LJp06ZuF8I674IacSpiaY3hzrSq14LBiTheaUZuDQ8nnrlLlGtmAmcngfhAP6TSg6ch9L4n0Wfwdm4QEFNIYmNjpT/emAATYAL1ERCrv4rAplWrVtIUNN7OHAHxPI2YAmgyifXAXbfzMqjxo4syIYjm5Vn0iA8yiNXEXclwChNgAuc1AXpNJfwpluERmvP6MuDGMwEmwAQkJ9qTI814zh4C52VQY8MvnBV5NVKOvM+eS5ItYQJMgAkwASbABJgAE2ACDSPgW1BD63nzxgSYABNgAj4Q4P7SB0gswgSYQIMJcN/SYGRc4PwiUO/LN88vHNxaJsAEmAATYAJMgAkwASbABBobAX76tbGdMbaXCTABJsAEmAATYAJMgAkwAQ0BDmr4gmACTIAJMAEmwASYABNgAkygURPgoKZRnz42ngkwASbABJgAE2ACTIAJMAEOavgaYAJMgAkwASbABJgAE2ACTKBRE+CgplGfPjaeCTABJsAEmAATYAJMgAkwAQ5q+BpgAkyACTABJsAEmAATYAJMoFET4KCmUZ8+Np4JMAEmwASYABNgAkyACTABDmr4GmACTIAJMAEmwASYABNgAkygURPgoKZRnz42ngkwASbABJgAE2ACTIAJMAEOavgaYAJMgAkwASbABJgAE2ACTKBRE+CgplGfPjaeCTABJsAEmAATYAJMgAkwAQ5q+BpgAkyACTABJsAEmAATYAJMoFET4KCmUZ8+Np4JMAEmwASYABNgAkyACTABDmr4GmACTIAJMAEmwASYABNgAkygURPgoKZRnz42ngkwASbABJgAE2ACTIAJMAEOavgaYAJMgAkwASbABJgAE2ACTKBRE+CgplGfPjaeCTABJsAEmAATYAJMgAkwAQ5q+BpgAkyACTABJsAEmAATYAJMoFET4KCmUZ8+Np4JMAEmwASYABNgAkyACTABgy8I5h9fhfmZq5FZmQ+z1QIr/Vfv5kHEQ3K96rQCPmrxUayBlUviOvrPoNMjKSQW16cOwlj6a8iW9+O3KPjpW1RnZQFmM6zW02esT+erIcY7y5Lpf9t6HRH180NgkyTEXzUGcVeOdq6Fj5kAE2ACTIAJMAEmwASYgFsC9QY1IqD5Jnst8gKrgJAg+Cneq8OJdUmgipy8XJXHq/HdpXR35VXpQkLtMasP7Onu67M78+ryavdbo1fmozbJpR12s0gzCdaRrpy6YghGYvM1sBEBTckvPyC8rASxwYFSWa0p8pEtTW6yKs2pPVo5WZutHfY8VS0u8RMJaeVUOlS2qQMvd7ZJVQh5pXK1mbY61QGWI02uD1YK7gpyIfiIjQMbmSf/ywSYABNgAkyACTABJuCdgK68vFzte7pIj17/vBTQ1AZYKM8xW032W1VF3XmwQps9XQ4E7BWo0qU0D+U9BjQaS6mwprw4VBKc0u2CnupzstlZr3N5HQkEwh8J/pH4rv/jGqs8HeybegPCKKAJMpugo9Eee5VSMxyGSXv2pqlyvKZp227TZivtEtCIGlUs5F13aaRXEVSJu6TZbNa2xEbN0QaHnENSSrPQv0GB0MXEo+PHX3tCyOlMgAkwASbABJgAE2ACTMBOoN6RGjHlTIzQ0NwgmnAlb8L51En/qBNsOlUur0pGLe7gr8h60qVJpwNbfUKBvRrase+r093tqwUdVqgtl9olbb7ptZJRVZY6ZAlOPm5VNOVMjNDo9HroqU1SM0V19I8zUilPaaBkmiSnRa8kS2VF2CDpUMnJOhxpNnl7G5VKbXIidqHZYNLmSCO9av4iTyUnS9sKyMGLvS1CTqXLrthNmpUqsVbXoPYETcvjjQkwASbABJgAE2ACTIAJ+ECg3qBGPEPjJxTZPWPFoZa8VMVtlfaFgNhUni/t2u7ui2dQ7J6tUOZSXpR1pEvaRBGbXrWXLeWRhF1ILippUNLd1icUqs20jTwI3UrVnvQ6p9tHLSR9Vphch0BEhvtNPEPjnCPhsYUvjubpqD32UEcUkuRsIx6O9shNEJKUa5cTlsmlrepISFIjRmOUc6LYIqdRnggs7GnyOVSnSVmCl9o2pzTp9NrTbHYoehX7RLbcFsVme60kT4x4YwJMgAkwASbABJgAE2ACvhCoN6hxTBhyqJP9d8XtVXvnasdelS7p0MgJXe7Ka9PtRZwDBkeGG72yA+2xPlUVUotsgY0m3Z29ioC9brvbLqvRVCgledxcn00RTr2Y3idvUhV2E+QK609T2q0pa8MjK7OZbtdor8OB0dU2gchWUi2nVCSbKhluuy4c0na81ByVDmXXbgeVtQV0dinncy7VwBsTYAJMgAkwASbABJgAE3AlUG9QIxVRe6nuE1w121NUnrNbXeqirs6zi2KH1+uSJat3MVYrp85WBzRutbm3TU4VIx1yjfUWrVfAU7vldFuuxnQvOrUEtDq8tcgW4Hlqld0OVbvd2Warw2GH657aKq29NrpeGshZTIAJMAEmwASYABNgAkxARaBB76lxcT7VCR5HadzxVgpqyqvkPOl1VuVTeVHIxXJnTSoRkvVFr6TBB72uNdlTpNLuVDiZoK1KVUAlZx8J0WbLdbmkaSuwZbs1xdcRE6mw07ieolCj120lajPdjQ3akfEOE2ACTIAJMAEmwASYABNwIeBzUOPOF3XR5pKgdZ7dOvD2Mo4aPNZlz3AvUa87rC72t0ZpnBrq3hwXGvUlaNXIR7Y0jekuihy53nSoi7mY7GaKmTt59eiUO9tsZdxZpJWXj1zscGkbJzABJsAEmAATYAJMgAkwAe8EfJt+ZtMhPFrnB/ZFntMojZ6ekGgZ0gRDozuhd3gbNA9OgNEvEBXmGqRX5WBjyT4sL9iBQxUnIF7l6XlkxIvLq87yuu9Fh71dqh2vurzDbEiuVI1oumYZOSXNWZEQpqWfA5o2Q3C/QQju0gP+qU2hCzbCWlWB2uNHUfXXZlT8sQo1R9JJqeoFqar2yLu2aXNyJbZsdbNt1Xt7IahGXjpo+CiNUkypThzVG5Y6k+FjJsAEmAATYAJMgAkwASYAn4IaVwdWTU7rDosAZkKTQRge0x0RhhAN4hAKbOICwtE7ojVuSroIi/O24MuslUivzLbLuXOupUx7hnuJet1hdTFPozRuVbsmqmM776NPvl9h2lrkI1uagQKY8KvGwDjoEujDwrVKg4MRHB0rBToR145D+cqlKFnwNWqOH9Fic3NkV3QSozS2sq501DGqI9e2p22ZGz7uFLoR4yQmwASYABNgAkyACTABJmAj4FNQIwlLnrxSTO14Kvti9aq+NCpze+oIdAtrgcK6MvyUtwm/FmzF7vLjKDdVI9QvCB1CU3BpTDdcGNUe1zcZiDbGZLx7bCHWF+3TrLKlGf1xPl9O9bt7nkQONnzwkO0iTrJu2ugwgzJty1k729aAY2G3DanMWB0QUAqNigV17YXICf9CYIfOMBcXoXzZIlSsXo6aA/tgqSyHLsSIwNZtYRx4MUJ69EXEFdcioHlLFH7xESr/3CROnE21/Klqly3HHaV/cpTGVr87OxqAk0WZABNgAkyACTABJsAEzlMCvgc1bgE53NC+ERTQpIxAl9BmWFm0Ex9kLMGOsmPyhCJFrNJcjdyCYqws2IULwppiaupwDIrqgDvSLpO0ryvc67YWzSiN2vP11QvWlJEPpH/r1eVagXqmXf3l3TfHe6rDPntA064TKjesQfFXn6Jm/26aXWazi8KiqkqYCvJQvn4tgtp2QNS4yTD27o/oG6dIcWHlnxuV6rRtsR+pkl1b60Akt9tJh5sCKsvszbQxk/M82KE6H27UekfGuUyACTABJsAEmAATYALnNQEfgxoPbqaSLKacXRPfTwpofqTRmfcyFiOzusAJrEOHGKHYXnYELx36FsVpI3BlfG9cm9AfJ6qLaCpajjwq5ONp+VujNPY6nNqnPnRpukuCj5ZqxWS7lXEaoZL+1JrFMzOhw69AIAU05UsXouireTBlZ2mE7PLSjhXVe3ch793ZMJcWI/ySyxAx8kqY8nIdU9FcTHc/ac/nURqpSU46XOpwxaOYq8oQjdeMWbkW4hQmwASYABNgAkyACTABJuCBgI9BjVJaeKN231P2XsWiABdGtke/iLZYW7wX83PWaAMaErsjdSTuTBuJuTTN7N1ji2RllJ5ZnY/5J1Yjxj8M/aLaYVtpuhzUqI21O8nC8bVl6BAe1AYXRaWhiZ8JhZUH8XvBMeSoZZXXOWpHVmQB6V+7rNO+VIWYTCctYaDZNLrUOR4znBS4ObTVobKM/Hs9gmkqWXC33qjasgFlC3+QAxoq77DJdU+k1FHgU/Lz9/CLjEZI9z6o3rOTgpp0L8GQbJSYCKdP7QNjz/YICDbBdOxPlK3fCVMdFZWqon/EIhFKW9012dEWlW3KrvzhSFc0uhDRSrhkcwITYAJMgAkwASbABJgAE3Ah4POSzvaS2rlE0spmXUObw2w1Y3XxLuwsP+ZSiTaC0GbvpClqqwt3SeW7hrewO81ulChJBnRMvgs/9p6MSXEt0D6iPa5pMwM/9b4RlwcKpxswhAzA612uRG+fbv47u9GJGN95Gu6L9HNjtrOsZyv/To4YpQlsfwGsZjMqN61D9f49krrICbegxeI/lL/1aLlY/mu1ZD3EX/SNt0hy1ft2o2LjWoDKB9GzOGJztVw9whKAwDFvo9XcpxHXvzOC2/ZG1B1z0eaDJxEWLy4RCnmajUHqS9MRogmDvY/SuAthpDRNhqzD1T7JbN6YABNgAkyACTABJsAEmEC9BHwfqRFep9MojdAugppmwfHYU5GB3RXHnR7291C/yrMVLu0uWkhgd9lxNA+J1xawe7q0Y9v3uwBTmidj6+7nMCOvTE7WpWB69/sxI20jftu/j5Y6boWexkp8rfaUbSMMogZNupONugR0j40HxVqaTTviQ1k2Fu6GLDw02znZgVTsyUaJf/1TmsKQkobag/tQe4CeM2pgHWL6WDWVE38BpEvdXnvTVQyswUMRO64lKl4bh4zl8rRBa2AHxL3+PpLGL0bZ6+uBlK4ITS5HvrBUKqtSoDrShDmKiFZSpiCnqQTkeFTKdD8pTi7H/zIBJsAEmAATYAJMgAkwAWcCvgc16pIqLzXOPxzxARHYWnoIx2g6mevmzqVVSVH2sao8ZFDZjmFprsVdUgwIoHe7VKtHjKyZ+Gr/5zihL0JdQE8807I9wgIteKibCe9s+x4rDJ1wV6tLMTQiFuG6GuSUbMK7exdiZa0FLZMmYVpQJk5E9cfLm9/E1e2vRB//SJg73IOafW/jpfwaxQKndjQw0HBphi1BqFUCJFsNfjGxEH81u7ah7kSGLFkPRrs6Ra4uK5OmomUiqE17p/BDSDqFDboA6A1WGi2TC0v/1uxB4dwXUBuUDWvs5Uia1BuGGDOSX63BiUdeQ5mhC6JvvR2x3ZvBz5SLilWfI+v/fkMNTVcLuPwZJDXZj0paCS+ubQRMR1bixDtvouhYrXMs5NY2W1v4kwkwASbABJgAE2ACTIAJ+ELAt+lnXhxqIy3THKIPRBmtbFZeV+Wo01MZKd2RKfbKTVVSeaHLvtlFaEety7QD/8kow4BOT+KnLpPxeNMBGBkehcrSLfimKBfWut34NCMdFbX78Pm+5VhqicfkTv/CpeZVeGTTc7jhzwXYEzIcjzdvjQDSGxrSDINbDkaL4pXCEqwkB3ynqQybDv8XnxeTEy6sVdev2VcfOEz3Zc9WUnxqtNCBLjgEenqxpqWiQvqTbPBFqUrGUlEOM/3pQxzvCrLrUCmTdit/R/4vRQh/+Bu0mvUCEm8ag7BOybDsXITiTUeA4rXI+4WmCJZsQe6cr1BWk4zox19Hk5SdODFzCg7M+gWWgU+g5Z39IC4ofWI7RN8wAaE7X8fe26YhK7M7mj/7bxj9ZQPl6hUjnBomHTa0sap28y4TYAJMgAkwASbABJjA+UfAt6DGExdPzqc93ZOAolCdrY4cvBarxprDr+Card9jSaUBbRNH4bmez+L3vlMxOTSQHOJKZNRUw0KfWZXFgKUcqw69h/sPbMbu2goUVGdie3kFIgLDJAdc2krX0EpsIqgxo6i6GBX0fE95VTYyTTSiofayvdplU9aAT5U+d6p9xeiuRnf6ZDl3k7vKUfneJBx46G0UZwYgeOhUpL3+Pdp/+ipi2hlhNRWjLr+CPstRe/QEkDQc0Z0zkfvauyg9nIna7fOR8cFK+F10DcIoLhV1W3b9B8e+2YK64nSUfPAhCsOGIbZbgMZUVxtdU9y1jdOYABNgAkyACTABJsAEmICaQAOnnwmnU/v0fQWNsFRaaqQXa4YaglFUV67oVxxU+hArnkmrnklJDsfVtifKhdGf0KXdSELt50r7fgjx0+FEyR+YU/yHJB4c2BYT29I0sg7DsHHTzzioUVKJEqRheufR6BEagwiUIscSDH2Jox2mmiJkO9nmZIj3Q7WN3iU1uaKYTmqgY/6ZOBLvnrFUVUBvNEp/pmIKzkS6j7qFnB+V8wsJpRd0VmrKuosdrVY/GhnSwfTXD8gTf6JEQj/E3PMEmtx3M8pvfwe2SXiSFXEJ8K89gZocWiFOMcp87BhqA/siIEyHapIxZR5Bnc3gOgp8isJgTAiiHDH6pQRWSr78oU3zsaksxgSYABNgAkyACTABJsAEHIMVPrFQe9XKfl5tCXLpLyUoFqn01yDPW6k0jcqJ8kJXfeUjE2/Dyt5jMFAVW1VV78O8YztQHJyIZuqGkMetC+iPZ7oOQ1zB95j2x0Pou/JZvJxHow4aOVW1qox/apTGmb14maa5IB/+ickwJKY4Z/t0HJCUDP8myfRiTvVzTppW2/X4Xf462n3yIEJooMu2WbPXoeDbtTDFN0UAhb6akuVlMPtHUOBkOwnEOSoKBksFTJWypF9ouBKwUVl9NAyh1TCVOEIjb41wb6W3EpzHBJgAE2ACTIAJMAEmcD4TaMD0M8XVdPI406tycIT+OhhT0NGYSo6scHS1snfQO2p2DJgD8WnbbGqEfIfQNHQIS3V6Rw1JqOtS9osLN2OjX2880HYQ+gYGSPWFBLbBv9I6I7B4D7ZaqJjFDLM+BBHUOr+AWCTQAgLbc/dhX20dDEFdcV1cNPz1NDqhOfM2m800whCAUH/lARB3V4e74Q53cl7S5NpUDVQ1t+74UdRlHENAq7YIaA+ciksAAA0gSURBVN1Oej+Mu0lj7tRLGukUBLZqjyAqW5tx1I7RndlipTTz+qUoC7wUSffdgJCEEBp9oXfWNKGRmjEXQr9nI6rE4IrJBGsgjf7QDDLrkTUozW1PK6b1AQ2awRrQDFFjLoJh9zqUSY8A6eDX7WrEtgqmfVouevgNiDZsROFWEdS4G6VRWqI+30oSfzABJsAEmAATYAJMgAkwgfoI+D79TDicjhvzil4rDlfm4C96aWYfevnmwKiOEO+d2VF+xGu9aue6EwU0A2M6knOsx18lh72XE+557UbM3B6Op9qOwvsDboDOYiGfvxYZ+b9jJjnVWcLM8n3YhomYPTQenZZ9gi9ye+GBvs/iosoaBOnysSr/MGojE9FKFX9JFUtOdQY2FVrxZM/XMX/vEwgJuAVX7HnR1a6/7YDLQCU1Gl00QYuCmurd2xHctSdCevdDzf7d9O6ZXSj64iMUff6RI0hR9tQ8hbqgNh1g7NOfIjo/VO3artjuqMTF9IIfkfl0NJKmT0WLL++jAIYiQ30Vav78DkdnfY9aUeDgFnrW6FG0XJCGzFsmIfuljxD46EvoOKQUJloBT5+xCOnPzZemnNEbfmAtCUDU8z8iwaKHwUAvRp31HIpLtRg1FlEgJTYX27RF+IgJMAEmwASYABNgAkyACbgQ0JWXl3v1I3stm07LC9MddxrZEC+UFyMj4u6+vMkP0ot31dyZOhKXxnTFj3kb8d7xxciskt93IslJ4ioXVtlNDorB7WkjcFVCH/yavxXvpP+ijNaQgNoqZd8+WiEd6xDsH4NUgw7ltQXIMpmdPOIAGh2gNQDqasjR1iEsIA6J+kocryqjZz5Um9o2e516GA20ahitgibR0dgiH9g4yMVp+hXFAZsvnaPW7HF/6/D+aBIaLAVygqloi8xU1i3+Fe+qibxxCkIHXoSypQtR9J9PaHnnLFVAI8qRpPy/VJdULrEJYuglnRHDLkfpqmXI++xDCpKOqM6ZozmO82hLo7GrKJq2Fq6HJT8DdeUmWa/cSFj9aKQmjBYBKKZV2aS0IOiTEuFXk4vaAprSJ5uPoCnz0b7Vl/jriVXwiwuAOTtbDPRIFiqqZL3Sv7ZUMeRjBWGUNrG8dM9f6f04vDEBJsAEmAATYAJMgAkwgXoI+DZSozirWl1yQCPSxBS073PWIyEgElfG9UakIRQfHl+CHWVi6pMo7FAgHF8REFwQ1hS3pg3HoOiO2FZ6BN9lrXOafuZSm5xgV2WlaVH52C8NI2iqkJxjetEKCumdKXKuFWW1uVBe1elQrG6Xat9qtdDy1GWueh0lnfZEYdswlkchlwx3pWxmiCloZUt+goFeBBp2yWXQh0ei6Kt5NGKzW2mfrWWKWoqOgtp2QMz4yQjtfSGq9uxAyeIfpYDGHm2QqLrJNoNsaaLdKKQH/gsdchp5cwXMtGaBI60K5qx0WjPOvbyVFNUqr9lxbrxDh+ueOxudy/MxE2ACTIAJMAEmwASYABOwEfAtqNHwcu9yri/eR1JW3EEjNkOiO6EzBS1ri/bg17yt2F1+HOXmKlohLRjtQ1MxPLYbLoxuj2j/MGylKWdzj/6C9UWivNhIv7oK99U5ZDW2aQ+kovbyTnrtop7S3Sh2nudlE/Fqoxs96iRRVoqHVEoUk6q2bqJUK6InTIGx7wAEteuIyi3rUUYjMDUH99Jq1eXQGUPp+Zl2CBt0MYw9+8IvMoqmnG1DPk1TK/9zo1STO/PUozReLZQKOz3RoyjU6FUdmPatQH4RBbQaOe0oja1ORb1TTOjOYq9WciYTYAJMgAkwASbABJjAeUyg/ulnS5XpZ/R8hmMswjFKI7Gz+6BWiKloE5oMxoi4HogQU7g8bCWmCizO/RNfZP6O9IoclRQpU/u00qHGO5Zl7d6wun6x7yisFpGUOum1J6jS5eJu6hO1qnQ7pp+RLM3F0tEUt4ZMP0u0TT8jtWIKmggy7GbYTZXT/FObIuKq6xE6+BKa/hXugShN2SorRdmK31D4w9fylDPFZpteTfOVttjzpB35SCOvpPuSpi6tUmfXakuz6bKfWZEgFkMgm6TpZ8onTz/zeKo5gwkwASbABJgAE2ACTEBFwPeRGsnxlEs6nFI1Szk1nRYOeOHQN/g6ew0uir4AvSPaoHlIAoz0HhvxHhqRv4FGdZbnb8ehihPkxKq10b7Tob0Gl3T3VtjkpVy7iI961c1x3lcFNJJenaJcUd3wyWeKfSKg8WCqzfy6Y0eR9/YslPz8HYz9BiGEFhAQgY4+2Ci9z0YsLFBJozpl61ah5ggttkDTyGxl7QhU7fE2SqORlw4aNkojl3A0SNZXzyiNyjbtBaDJ4AMmwASYABNgAkyACTABJuCWgO9Bjbq42vN14zULl/pARRYOlGfifSyWSqpjAs2Bm/LaquoVcIhrKnHbXlWiq165uJLumq1VKOXXJ+TdBlHaczDk0C1XZUFt+iHUpB9EIS0aoI2xZFmX5qsS3FlqS9O0WzHZm7y63bYqFAs8N1hR6NQqSd5uh/rAsybOYQJMgAkwASbABJgAE2ACGgK+vafGnYerUePisWr9fXV5F8/bpoiENHKqClzSvRsk5dpFfNTr7cLQRhAOSSfV3lS45Kntc4PAfbaSqmq+bdfVRKcRFqWOUz5K49QwyR6NmR7sUMnJKkQhVcOc9PIhE2ACTIAJMAEmwASYABPwRMC3oMZe2snp9OqDOjI9itkz3Eu4d4dVTVEXU7x695qcm+8qpRmtcM12VnBa3G93xNyZok3zcKRKtu26LuFMYYSU6aTDTaV2HSpZb6M0GhXKgVsdarJu6nUBzwlMgAkwASbABJgAE2ACTMCJQIOCGvc+p5PHKipQC2r23WuQbPJYRmWxJONFh03ULkI7vuh1MUBdp0qBU9XqalQlGrArh21ScOCuGk2acuBGznXwq95w0MVGp6ZJBmnSXAXUkBwEnQp5LOac4do8Fxs5gQkwASbABJgAE2ACTIAJuCPQgKCGvE61I+rslGq0OzI9itkz3EvU65ZrbJEP3GtybrarlCYocM12VkDHPgm5Kec5yaFR2aMPW5q6Nm3NKiG1VSohuw5VIx1pwh4njdpDyWC7vEpWO0qjbZdGhXLgVodSzE2VWoV8xASYABNgAkyACTABJsAEvBCod6EAnfzKe8mdlV+nQssXiz2x+pfkjSqPuosPm6crLc8r1yoVVx/YPFj76mHq8kIlCUjqtelSZZIu1/qsio02lRrbpDLCFtfyslnUHme9krjdULkh4l+lzYKA3b9Xt9Mh6X1PrpBUSCSlTXCWAzlFN33YTJdylHaLonKV9K9IsykQOuhPmmKm8JD0KmmyfqkqJU2IiRpVCqSitnBSSbdjk62V6laqEPuy1XajJOW2lqjtk+wQtZHNkg5JzpYmt0lKl9JEfgPibaUcfzABJsAEmAATYAJMgAmcnwTqDWrCAo304sw6yce0Qi87nHaHX3FDbd6oYGjP0+w6HdhguysvO7qShEavKsFNffYku2esFrLpcq3PFti41qcqr1FFB/L/UhHJRSfvPMzLO3kkQdUWGB6G2tpqBOp1tKS1/H4WOVsJKFT65aqVf73YYc+iBtn27Z/qc6LYoW63Q05kqmt0nAKHVsepdGeb5zTlvCqVaWxU7BNpUtxIPA2hoRpmfMAEmAATYAJMgAkwASbABDwRqDeo6R3bFivyd9D7Jem1iH6KGskjdfJO7TW4SVc51ZKYzaNVRwdKut15tsvYFKsS1Hlu9ynRl3StMU5lPNWncu+FiHDAdX7oHdPWTqC+nYjuvVH6xyp6aacZ/hQt2mpSt905zRmhhMvFRHXo4WiOLVWLRH2kbrqTDknMKVBSimokteo0+GUeDgFPNUsjN+IfetFreLde9WHkfCbABJgAE2ACTIAJMAEmIBHQlZeXO7mjrmRu2/kO/io4BFNdnWtmQ1Pqra0hCk9C2UkU8WaRHwUlXaNa4oOe//Ym5pKX8ch0FO/Yirpakz3Pd9N8l1RX3OBSPhbwUcyFgTaKlLN1FNCEdeqCNrPedSPPSUyACTABJsAEmAATYAJMwJWAT0GNKPZdwXqsLtmNQ1U5NB2tmlIUV1bt0Ur7coJ2ZIHSXOQUWTfpbkdrVLpdhgFU05e0eb7V61CtGONikypB2TUagtDKmIRBcZ0wNnWQK1kfUqoW/w/Vm/6A+Vg6zJUVKqSO+mwc1aMijjQVbxecSgkNAndp9jPmZuSH8lQn0m6VpFM+sqXJYto0IWJL0ZaV4ajbpA8xIqh5S0T2HYi4K0f7QI9FmAATYAJMgAkwASbABJiATMDnoIaBMQEmwASYABNgAkyACTABJsAEzkYCvMTU2XhW2CYmwASYABNgAkyACTABJsAEfCbAQY3PqFiQCTABJsAEmAATYAJMgAkwgbORAAc1Z+NZYZuYABNgAkyACTABJsAEmAAT8JkABzU+o2JBJsAEmAATYAJMgAkwASbABM5GAv8P2EyxuvqaZuwAAAAASUVORK5CYII=;" vertex="1" parent="1">
          <mxGeometry x="120" y="10" width="563.43" height="70" as="geometry" />
        </mxCell>
        <mxCell id="c7obE_XY5jQ9TQnowNLQ-22" style="edgeStyle=orthogonalEdgeStyle;rounded=0;orthogonalLoop=1;jettySize=auto;html=1;entryX=0.5;entryY=0;entryDx=0;entryDy=0;" edge="1" parent="1" source="c7obE_XY5jQ9TQnowNLQ-7" target="c7obE_XY5jQ9TQnowNLQ-2">
          <mxGeometry relative="1" as="geometry" />
        </mxCell>
        <mxCell id="c7obE_XY5jQ9TQnowNLQ-23" value="queue finished tasks" style="edgeLabel;html=1;align=center;verticalAlign=middle;resizable=0;points=[];" vertex="1" connectable="0" parent="c7obE_XY5jQ9TQnowNLQ-22">
          <mxGeometry x="0.0095" relative="1" as="geometry">
            <mxPoint as="offset" />
          </mxGeometry>
        </mxCell>
        <mxCell id="c7obE_XY5jQ9TQnowNLQ-7" value="Executor&lt;br&gt;(used by &lt;br&gt;CompletionService)" style="rounded=1;whiteSpace=wrap;html=1;fillColor=#FF8000;" vertex="1" parent="1">
          <mxGeometry x="414" y="200" width="120" height="60" as="geometry" />
        </mxCell>
        <mxCell id="c7obE_XY5jQ9TQnowNLQ-16" style="edgeStyle=orthogonalEdgeStyle;rounded=0;orthogonalLoop=1;jettySize=auto;html=1;entryX=0;entryY=0.5;entryDx=0;entryDy=0;" edge="1" parent="1" source="c7obE_XY5jQ9TQnowNLQ-13" target="c7obE_XY5jQ9TQnowNLQ-7">
          <mxGeometry relative="1" as="geometry" />
        </mxCell>
        <mxCell id="c7obE_XY5jQ9TQnowNLQ-17" value="&lt;div&gt;create and submit tasks&lt;/div&gt;" style="edgeLabel;html=1;align=center;verticalAlign=middle;resizable=0;points=[];" vertex="1" connectable="0" parent="c7obE_XY5jQ9TQnowNLQ-16">
          <mxGeometry x="-0.0098" y="2" relative="1" as="geometry">
            <mxPoint as="offset" />
          </mxGeometry>
        </mxCell>
        <mxCell id="c7obE_XY5jQ9TQnowNLQ-13" value="TaskHandler" style="rounded=1;whiteSpace=wrap;html=1;fillColor=#FF8000;" vertex="1" parent="1">
          <mxGeometry x="90" y="200" width="120" height="60" as="geometry" />
        </mxCell>
        <mxCell id="c7obE_XY5jQ9TQnowNLQ-20" value="Tasks receive a reference to the completion service and can submit child tasks" style="text;html=1;strokeColor=none;fillColor=none;align=center;verticalAlign=middle;whiteSpace=wrap;rounded=0;" vertex="1" parent="1">
          <mxGeometry x="210" y="260" width="200" height="60" as="geometry" />
        </mxCell>
        <mxCell id="c7obE_XY5jQ9TQnowNLQ-31" value="&lt;div&gt;The completion service is the&lt;/div&gt;&lt;div&gt;link between the highly concurrent &lt;br&gt;&lt;/div&gt;&lt;div&gt;task execution and the single UI thread.&lt;br&gt;&lt;/div&gt;" style="text;html=1;strokeColor=none;fillColor=none;align=center;verticalAlign=middle;whiteSpace=wrap;rounded=0;" vertex="1" parent="1">
          <mxGeometry x="374" y="555" width="200" height="60" as="geometry" />
        </mxCell>
      </root>
    </mxGraphModel>
  </diagram>
</mxfile>
